# AST/ASF file generated using VICON BodyLanguage
# -----------------------------------------------
:version 1.10
:name VICON
:units
  mass 1.0
  length 0.45
  angle deg
:documentation
   .ast/.asf automatically generated from VICON data using
   VICON BodyBuilder and BodyLanguage model FoxedUp or BRILLIANT.MOD
:root
   order TX TY TZ RX RY RZ
   axis XYZ
   position 0 0 0  
   orientation 0 0 0 
:bonedata
  begin
     id 1 
     name lhipjoint
     direction 0.523584 -0.783993 0.333487 
     length 2.44404 
     axis 0 0 0  XYZ
  end
  begin
     id 2 
     name lfemur
     direction 0.34202 -0.939693 0  
     length 7.29523  
     axis 0 0 20  XYZ
    dof rx ry rz
    limits (-160.0 20.0)
           (-70.0 70.0)
           (-60.0 70.0)
  end
  begin
     id 3 
     name ltibia
     direction 0.34215 -0.939645 0   
     length 7.81194   
     axis 0 0 20   XYZ
    dof rx
    limits (-10.0 170.0)
  end
  begin
     id 4 
     name lfoot
     direction 0.0941847 -0.25877 0.961336   
     length 2.41437   
     axis -90 7.62852e-016 20   XYZ
    dof rx rz
    limits (-45.0 90.0)
           (-70.0 20.0)
  end
  begin
     id 5 
     name ltoes
     direction 1.53526e-011 -4.21768e-011 1   
     length 1.2048   
     axis -90 7.62852e-016 20   XYZ
    dof rx
    limits (-90.0 20.0)
  end
  begin
     id 6 
     name rhipjoint
     direction -0.46599 -0.814191 0.346332   
     length 2.35339  
     axis 0 0 0  XYZ 
  end
  begin
     id 7 
     name rfemur
     direction -0.34202 -0.939693 0   
     length 7.34966   
     axis 0 0 -20   XYZ
    dof rx ry rz
    limits (-160.0 20.0)
           (-70.0 70.0)
           (-70.0 60.0)
  end
  begin
     id 8 
     name rtibia
     direction -0.34202 -0.939693 0   
     length 7.89934   
     axis 0 0 -20   XYZ
    dof rx
    limits (-10.0 170.0)
 end
 begin
     id 9 
     name rfoot
     direction -0.0975468 -0.268008 0.958466   
     length 2.27725  
     axis -90 -7.62852e-016 -20   XYZ
    dof rx rz
    limits (-45.0 90.0)
           (-20.0 70.0)
  end
  begin
     id 10 
     name rtoes
     direction -1.53563e-011 -4.22022e-011 1   
     length 1.13683   
     axis -90 -7.62852e-016 -20   XYZ
    dof rx
    limits (-90.0 20.0)
  end
  begin
     id 11 
     name lowerback
     direction -0.00456414 0.999242 -0.0386661   
     length 2.16968   
     axis 0 0 0   XYZ
    dof rx ry rz
    limits (-20.0 45.0)
           (-30.0 30.0)
           (-30.0 30.0)
  end
  begin
     id 12 
     name upperback
     direction 0.0297078 0.998988 0.0337799   
     length 2.15674   
     axis 0 0 0   XYZ
    dof rx ry rz
    limits (-20.0 45.0)
           (-30.0 30.0)
           (-30.0 30.0)
  end
  begin
     id 13 
     name thorax
     direction 0.0309305 0.998202 0.0513506   
     length 2.16319   
     axis 0 0 0   XYZ
    dof rx ry rz
    limits (-20.0 45.0)
           (-30.0 30.0)
           (-30.0 30.0)
  end
  begin
     id 14 
     name lowerneck
     direction -0.103039 0.983474 0.148872   
     length 1.64318   
     axis 0 0 0   XYZ
    dof rx ry rz
    limits (-20.0 45.0)
           (-30.0 30.0)
           (-30.0 30.0)
  end
  begin
     id 15 
     name upperneck
     direction 0.128124 0.971079 -0.201469   
     length 1.68242   
     axis 0 0 0   XYZ
    dof rx ry rz
    limits (-20.0 45.0)
           (-30.0 30.0)
           (-30.0 30.0)
  end
  begin
     id 16
     name head
     direction 0.0496365 0.994919 -0.0875941  
     length 1.70108  
     axis 0 0 0   XYZ
    dof rx ry rz
    limits (-20.0 45.0)
           (-30.0 30.0)
           (-30.0 30.0)
  end
  begin
     id 17 
     name lclavicle
     direction 0.887148 0.430222 -0.166967  
     length 3.25763  
     axis 0 0 0   XYZ
    dof ry rz
    limits (-20.0 10.0)
           (0.0 20.0)
  end
  begin
     id 18 
     name lhumerus
     direction 1 -4.48962e-011 1.92156e-027   
     length 5.10755   
     axis 180 -30 -90   XYZ
    dof rx ry rz
    limits (-60.0 90.0)
           (-90.0 90.0)
           (-90.0 90.0)
  end
  begin
     id 19
     name lradius
     direction 1 -4.48958e-011 7.10963e-027   
     length 3.36253   
     axis 180 -30 -90   XYZ
    dof rx
    limits (-10.0 170.0)
  end
  begin
     id 20
     name lwrist
     direction 1 -4.48946e-011 1.82396e-026   
     length 1.68127   
     axis -1.15222e-014 90 90   XYZ
    dof ry
    limits (-180.0 0.0)
 end
  begin
     id 21 
     name lhand
     direction 1 -4.48919e-011 3.64759e-026   
     length 0.619088   
     axis -2.32787e-014 90 90   XYZ
    dof rx rz
    limits (-90.0 90.0)
           (-45.0 45.0)
  end
  begin
     id 22 
     name lfingers
     direction 1 -4.49012e-011 7.29744e-026   
     length 0.499125   
     axis -4.6558e-014 90 90   XYZ
    dof rx
    limits (0.0 90.0)
  end
  begin
     id 23
     name lthumb
     direction 0.707107 -6.35028e-011 0.707107   
     length 0.716646   
     axis -90 45 3.78391e-014   XYZ
    dof rx rz
    limits (-45.0 45.0)
           (-45.0 45.0)
  end
  begin
     id 24 
     name rclavicle
     direction -0.82886 0.533198 -0.169384   
     length 3.20647  
     axis 0 0 0   XYZ 
    dof ry rz
    limits (-10.0 20.0)
           (-20.0 0.0)
  end
  begin
     id 25 
     name rhumerus
     direction -1 -4.48973e-011 3.06863e-027  
     length 5.27387   
     axis 180 30 90   XYZ
    dof rx ry rz
    limits (-90.0 60.0)
           (-90.0 90.0)
           (-90.0 90.0)
  end
  begin
     id 26 
     name rradius
     direction -1 -4.48988e-011 9.4797e-027   
     length 3.40144   
     axis 180 30 90   XYZ
    dof rx
    limits (-10.0 170.0)
  end
  begin
     id 27 
     name rwrist
     direction -1 -4.48897e-011 1.82366e-026   
     length 1.70072   
     axis -1.15222e-014 -90 -90   XYZ
    dof ry
    limits (-180.0 0.0)
  end
  begin
     id 28
     name rhand
     direction -1 -4.48965e-011 3.64815e-026   
     length 0.742821   
     axis -2.32787e-014 -90 -90   XYZ
    dof rx rz
    limits (-90.0 90.0)
           (-45.0 45.0)
  end
  begin
     id 29
     name rfingers
     direction -1 -4.49016e-011 7.29754e-026   
     length 0.598881   
     axis -4.6558e-014 -90 -90   XYZ
    dof rx
    limits (0.0 90.0)
  end
  begin
     id 30
     name rthumb
     direction -0.707107 -6.3488e-011 0.707107   
     length 0.859877   
     axis -90 -45 -3.78391e-014   XYZ
    dof rx rz
    limits (-45.0 45.0)
           (-45.0 45.0)
  end
:hierarchy
  begin
    root lhipjoint rhipjoint lowerback
    lhipjoint lfemur
    lfemur ltibia
    ltibia lfoot
    lfoot ltoes
    rhipjoint rfemur
    rfemur rtibia
    rtibia rfoot
    rfoot rtoes
    lowerback upperback
    upperback thorax
    thorax lowerneck lclavicle rclavicle
    lowerneck upperneck
    upperneck head
    lclavicle lhumerus
    lhumerus lradius
    lradius lwrist
    lwrist lhand lthumb
    lhand lfingers
    rclavicle rhumerus
    rhumerus rradius
    rradius rwrist
    rwrist rhand rthumb
    rhand rfingers
  end

#!OML:ASF F:\Work\Patient Classification 1\justin\Session 1\justin.ASF
:FULLY-SPECIFIED
:DEGREES
121
root 0.881841 18.1179 -4.60264 -4.71354 2.09511 -2.24877
lowerback 5.57113 -0.992662 -1.04147
upperback -2.73824 -1.25755 2.77326
thorax -5.89536 -0.521273 3.61353
lowerneck -5.70562 -12.1614 -17.9435
upperneck 14.0219 -17.5083 16.782
head 8.39327 -8.30469 6.55269
rclavicle -2.44505e-014 2.0276e-014
rhumerus 39.5517 28.1886 -46.9483
rradius 56.2095
rwrist 6.83536
rhand -17.0667 11.741
rfingers 7.12502
rthumb 9.17101 -18.0396
lclavicle -2.44505e-014 2.0276e-014
lhumerus 34.0975 -25.5328 59.7148
lradius 43.0438
lwrist -6.26477
lhand -14.6871 27.4303
lfingers 7.12502
lthumb 11.4665 57.0967
rfemur -1.20187 0.196084 21.8213
rtibia 25.3897
rfoot -15.3438 -3.63156
rtoes -13.8511
lfemur -0.974646 2.20484 -16.8282
ltibia 24.6322
lfoot -14.4501 -1.6924
ltoes -10.1757
122
root 0.888338 18.1136 -4.59435 -4.77329 2.25487 -2.12653
lowerback 5.57515 -1.04081 -1.10823
upperback -2.69921 -1.32999 2.73724
thorax -5.8508 -0.556373 3.61997
lowerneck -6.25955 -11.9934 -17.8993
upperneck 14.4182 -17.199 16.5786
head 8.54113 -8.13548 6.50082
rclavicle -9.49197e-015 3.97569e-014
rhumerus 39.429 28.053 -47.0235
rradius 56.6337
rwrist 7.07807
rhand -17.6624 11.6131
rfingers 7.12502
rthumb 8.59612 -18.1919
lclavicle -9.49197e-015 3.97569e-014
lhumerus 34.0025 -25.0764 60.5514
lradius 43.5944
lwrist -6.76006
lhand -14.8169 27.8603
lfingers 7.12502
lthumb 11.3413 57.5336
rfemur -1.1431 -0.322915 21.5702
rtibia 25.4723
rfoot -15.2923 -3.37846
rtoes -15.6561
lfemur -0.913216 2.01247 -17.0002
ltibia 24.7804
lfoot -14.6055 -1.74912
ltoes -9.94399
123
root 0.890211 18.1078 -4.58974 -4.75458 2.33255 -2.17884
lowerback 5.5042 -1.05083 -1.04368
upperback -2.66179 -1.33778 2.75929
thorax -5.77108 -0.563931 3.6043
lowerneck -6.78822 -11.877 -17.7563
upperneck 14.621 -16.9325 16.2913
head 8.61203 -7.99108 6.39699
rclavicle -2.08724e-015 2.38542e-015
rhumerus 39.2991 27.7726 -47.1555
rradius 57.0254
rwrist 7.4661
rhand -17.3886 11.0689
rfingers 7.12502
rthumb 8.86034 -18.7251
lclavicle -2.08724e-015 2.38542e-015
lhumerus 33.5189 -25.5048 59.973
lradius 44.3519
lwrist -6.14557
lhand -14.4739 27.9493
lfingers 7.12502
lthumb 11.6722 57.6042
rfemur -1.15471 -0.600312 21.5861
rtibia 25.5071
rfoot -15.2779 -3.37279
rtoes -16.2055
lfemur -1.0544 1.92367 -16.9481
ltibia 25.0197
lfoot -14.758 -1.86355
ltoes -10.3383
124
root 0.88992 18.1014 -4.58445 -4.73993 2.3843 -2.44186
lowerback 5.53302 -1.05502 -0.819944
upperback -2.68764 -1.31946 2.85753
thorax -5.81877 -0.560389 3.58071
lowerneck -7.37334 -11.733 -17.8139
upperneck 15.0075 -16.6724 16.2634
head 8.80172 -7.83902 6.41432
rclavicle -9.29318e-015 6.75868e-015
rhumerus 39.1711 27.5684 -47.2981
rradius 57.3837
rwrist 7.50105
rhand -17.7563 11.1272
rfingers 7.12502
rthumb 8.50553 -18.6815
lclavicle -9.29318e-015 6.75868e-015
lhumerus 33.1743 -25.6113 60.0748
lradius 45.181
lwrist -6.32367
lhand -13.9079 28.3448
lfingers 7.12502
lthumb 12.2179 57.9679
rfemur -1.17038 -0.691849 21.8884
rtibia 25.5116
rfoot -15.2313 -3.46637
rtoes -15.9114
lfemur -1.28536 1.89962 -16.6351
ltibia 25.3364
lfoot -14.8362 -2.03423
ltoes -10.8492
125
root 0.889919 18.0973 -4.57828 -4.77756 2.47445 -2.80312
lowerback 5.69742 -1.079 -0.534731
upperback -2.81261 -1.31639 2.99927
thorax -6.04828 -0.562437 3.57664
lowerneck -7.71197 -11.5707 -17.9024
upperneck 15.455 -16.4106 16.1443
head 8.96115 -7.70802 6.42009
rclavicle -9.93923e-016 7.95139e-015
rhumerus 38.9025 27.3701 -47.5662
rradius 57.5853
rwrist 8.23211
rhand -17.9972 11.8184
rfingers 7.12502
rthumb 8.27303 -17.9996
lclavicle -9.93923e-016 7.95139e-015
lhumerus 32.5231 -25.8408 60.2933
lradius 45.958
lwrist -6.19768
lhand -14.461 28.4164
lfingers 7.12502
lthumb 11.6846 58.0705
rfemur -1.16427 -0.805138 22.299
rtibia 25.5378
rfoot -15.2131 -3.53164
rtoes -16.2615
lfemur -1.44343 1.75904 -16.2065
ltibia 25.6428
lfoot -14.8534 -2.22601
ltoes -10.7373
126
root 0.891768 18.0912 -4.57072 -4.85123 2.6463 -2.98647
lowerback 5.72017 -1.11643 -0.417107
upperback -2.8264 -1.35121 3.08505
thorax -6.0745 -0.581959 3.60521
lowerneck -7.93456 -11.4639 -17.7906
upperneck 15.6158 -16.1875 15.8165
head 8.97228 -7.60797 6.31572
rclavicle 3.08116e-015 4.77083e-015
rhumerus 38.7249 27.0288 -47.7723
rradius 57.8386
rwrist 8.99772
rhand -17.5018 11.9651
rfingers 7.12502
rthumb 8.75113 -17.8335
lclavicle 3.08116e-015 4.77083e-015
lhumerus 31.902 -25.956 60.5633
lradius 46.7668
lwrist -5.93227
lhand -15.3953 28.4664
lfingers 7.12502
lthumb 10.7835 58.1696
rfemur -1.07587 -1.03681 22.4691
rtibia 25.5849
rfoot -15.2932 -3.56268
rtoes -16.497
lfemur -1.50596 1.55783 -15.9948
ltibia 25.8902
lfoot -14.9172 -2.43429
ltoes -10.5503
127
root 0.892536 18.0828 -4.56295 -4.9488 2.8836 -2.9614
lowerback 5.68442 -1.14355 -0.514277
upperback -2.69238 -1.39792 3.10372
thorax -5.90694 -0.60437 3.67971
lowerneck -8.29742 -11.4326 -17.5918
upperneck 15.6044 -16.0384 15.4935
head 8.95874 -7.53143 6.17716
rclavicle -5.66536e-015 -7.95139e-016
rhumerus 38.767 26.5591 -47.8326
rradius 58.2526
rwrist 8.82547
rhand -17.0043 11.8602
rfingers 7.12502
rthumb 9.23117 -17.9177
lclavicle -5.66536e-015 -7.95139e-016
lhumerus 31.5004 -25.9113 60.8705
lradius 47.7601
lwrist -5.9168
lhand -15.8969 28.6055
lfingers 7.12502
lthumb 10.2996 58.3333
rfemur -0.935052 -1.36007 22.3867
rtibia 25.6414
rfoot -15.4082 -3.52962
rtoes -16.2375
lfemur -1.50237 1.39643 -16.0195
ltibia 26.0823
lfoot -15.0119 -2.6799
ltoes -10.5151
128
root 0.889642 18.0812 -4.55801 -4.93553 3.06847 -3.0529
lowerback 5.70551 -1.11459 -0.507381
upperback -2.62949 -1.35714 3.14929
thorax -5.85469 -0.584786 3.71839
lowerneck -8.737 -11.4739 -17.5054
upperneck 15.6967 -16.0032 15.2835
head 9.03659 -7.50188 6.07415
rclavicle 3.8763e-015 1.35174e-014
rhumerus 38.755 25.9869 -47.8386
rradius 58.6309
rwrist 8.6692
rhand -16.1718 11.7797
rfingers 7.12502
rthumb 10.0344 -17.9611
lclavicle 3.8763e-015 1.35174e-014
lhumerus 31.1661 -26.0284 61.162
lradius 49.05
lwrist -5.96286
lhand -15.7923 28.7639
lfingers 7.12502
lthumb 10.4005 58.4866
rfemur -0.989309 -1.56408 22.4771
rtibia 25.719
rfoot -15.4685 -3.51368
rtoes -16.1327
lfemur -1.61759 1.33542 -15.8957
ltibia 26.2198
lfoot -15.0664 -2.92846
ltoes -10.7458
129
root 0.890315 18.0837 -4.55334 -4.82331 3.30209 -3.15474
lowerback 5.63576 -1.07948 -0.423131
upperback -2.61557 -1.30371 3.16026
thorax -5.80521 -0.562149 3.67417
lowerneck -9.23144 -11.5316 -17.3956
upperneck 15.8323 -16.0007 15.1107
head 9.14671 -7.48081 5.973
rclavicle -9.34288e-015 2.78299e-015
rhumerus 38.7574 25.4436 -47.7842
rradius 58.9293
rwrist 8.64937
rhand -15.7934 11.5456
rfingers 7.12502
rthumb 10.3995 -18.1772
lclavicle -9.34288e-015 2.78299e-015
lhumerus 30.8998 -26.4624 61.0913
lradius 50.4583
lwrist -5.60782
lhand -16.0555 28.9571
lfingers 7.12502
lthumb 10.1466 58.6925
rfemur -1.153 -1.83233 22.5525
rtibia 25.7855
rfoot -15.5569 -3.51704
rtoes -16.337
lfemur -1.8418 1.21742 -15.7963
ltibia 26.3227
lfoot -15.0937 -3.09268
ltoes -11.0372
130
root 0.901479 18.078 -4.55105 -4.76391 3.69833 -3.0646
lowerback 5.58243 -1.11356 -0.408013
upperback -2.54159 -1.35489 3.07622
thorax -5.69539 -0.591916 3.5788
lowerneck -9.82762 -11.5159 -17.177
upperneck 15.9577 -15.9005 14.9642
head 9.24767 -7.40132 5.87711
rclavicle 2.73329e-014 1.98785e-014
rhumerus 39.09 24.9334 -47.554
rradius 59.2112
rwrist 8.37668
rhand -15.7091 11.5309
rfingers 7.12502
rthumb 10.4808 -18.1878
lclavicle 2.73329e-014 1.98785e-014
lhumerus 30.832 -26.9277 60.8023
lradius 51.714
lwrist -5.13265
lhand -16.828 29.2585
lfingers 7.12502
lthumb 9.40128 59.0289
rfemur -1.13546 -2.39589 22.2729
rtibia 25.8224
rfoot -15.7691 -3.16671
rtoes -15.6669
lfemur -1.9636 0.921742 -15.9766
ltibia 26.4021
lfoot -15.0912 -3.27166
ltoes -10.6127
131
root 0.898634 18.0729 -4.54493 -4.7564 3.75921 -3.15617
lowerback 5.65215 -1.06306 -0.390117
upperback -2.50928 -1.28374 3.11185
thorax -5.70554 -0.556731 3.60014
lowerneck -10.4239 -11.46 -16.9895
upperneck 16.2188 -15.7478 14.7715
head 9.38483 -7.3024 5.78123
rclavicle 3.07619e-014 -1.66979e-014
rhumerus 39.3319 24.4612 -47.3896
rradius 59.5921
rwrist 7.9632
rhand -14.9577 11.6795
rfingers 7.12502
rthumb 11.2055 -18.0013
lclavicle 3.07619e-014 -1.66979e-014
lhumerus 30.7155 -27.3891 60.5555
lradius 52.8305
lwrist -4.90688
lhand -17.1667 29.4862
lfingers 7.12502
lthumb 9.07448 59.271
rfemur -1.06936 -2.31875 22.3837
rtibia 25.8115
rfoot -15.8813 -3.11057
rtoes -14.2828
lfemur -1.99426 0.903166 -15.8329
ltibia 26.4582
lfoot -15.111 -3.5109
ltoes -10.1647
